<svg width="32004" height="7935" viewBox="0 0 32004 7935" fill="none" xmlns="http://www.w3.org/2000/svg">
<g clip-path="url(#clip0_4847_64)">
<path d="M31096.7 0H26109.4C25461.6 10.7058 24146.8 417.527 24069 1959.16V5620.55C24209.4 6776.75 25176.6 8780.9 27922.8 7547.59L30611.1 4881.85V7804.52H32003.6L31906.5 4753.36C31960.5 4014.66 31589.1 2543.69 29671.9 2569.39H26724.7V3886.19H29671.9L27372.5 6166.53C26886.6 6776.75 25526.4 6905.22 25364.5 5459.94V1316.81H31096.7V0Z" fill="#233935"/>
<path d="M1588.18 5819L98.5996 3118.99H680.468L1839.55 5251.07L2998.63 3118.99H3580.5L2090.92 5819H1588.18ZM4450.71 5819V3118.99H4953.44V5819H4450.71ZM4450.71 2737.26V2234.5H4953.44V2737.26H4450.71ZM6609.02 5819C6497.3 5819 6394.89 5791.07 6301.79 5735.21C6211.79 5679.35 6138.87 5606.42 6083.01 5516.41C6030.24 5426.4 6003.87 5325.55 6003.87 5213.83V2267.08H6506.61V3118.99H7614.48V3621.75H6506.61V5199.86C6506.61 5230.89 6517.48 5258.82 6539.19 5283.65C6564.03 5305.37 6591.96 5316.24 6622.98 5316.24H7614.48V5819H6609.02ZM9143.85 5819C9032.13 5819 8929.72 5791.07 8836.62 5735.21C8746.61 5679.35 8673.7 5606.42 8617.84 5516.41C8565.07 5426.4 8538.7 5325.55 8538.7 5213.83V4217.61H10777.7V3738.13C10777.7 3707.1 10766.9 3680.7 10745.1 3658.99C10723.4 3634.15 10697 3621.75 10666 3621.75H8538.7V3118.99H10680C10791.7 3118.99 10892.5 3146.92 10982.5 3202.78C11075.6 3255.55 11148.6 3328.47 11201.3 3421.57C11257.2 3514.68 11285.1 3615.53 11285.1 3724.16V5819H9143.85ZM9157.81 5316.24H10777.7V4687.79H9041.44V5199.86C9041.44 5230.89 9052.31 5258.82 9074.02 5283.65C9098.86 5305.37 9126.79 5316.24 9157.81 5316.24ZM12187.6 5819V3118.99H15636.9C15751.7 3118.99 15854.1 3146.92 15944.1 3202.78C16034.1 3258.64 16105.5 3331.56 16158.3 3421.57C16214.1 3511.58 16242.1 3612.44 16242.1 3724.16V5819H15744V3738.13C15744 3707.1 15731.6 3680.7 15706.7 3658.99C15685 3634.15 15658.6 3621.75 15627.6 3621.75H14589.5C14555.4 3621.75 14527.5 3634.15 14505.8 3658.99C14484 3680.7 14473.2 3707.1 14473.2 3738.13V5819H13965.8V3738.13C13965.8 3707.1 13953.4 3680.7 13928.5 3658.99C13906.8 3634.15 13880.4 3621.75 13849.4 3621.75H12806.7C12775.7 3621.75 12749.3 3634.15 12727.6 3658.99C12705.9 3680.7 12695 3707.1 12695 3738.13V5819H12187.6ZM17240.7 5819V3118.99H17743.5V5819H17240.7ZM17240.7 2737.26V2234.5H17743.5V2737.26H17240.7ZM18794 5819V3118.99H20935.3C21047 3118.99 21147.8 3146.92 21237.8 3202.78C21330.9 3258.64 21403.9 3331.56 21456.6 3421.57C21512.5 3511.58 21540.4 3612.44 21540.4 3724.16V5819H21037.7V3738.13C21037.7 3707.1 21025.2 3680.7 21000.4 3658.99C20978.7 3634.15 20952.3 3621.75 20921.3 3621.75H19413.1C19382.1 3621.75 19354.1 3634.15 19329.3 3658.99C19307.6 3680.7 19296.7 3707.1 19296.7 3738.13V5819H18794Z" fill="#233935"/>
</g>
<defs>
<clipPath id="clip0_4847_64">
<rect width="32002.7" height="7935" fill="white" transform="translate(0.84375)"/>
</clipPath>
</defs>
</svg>
